PathFileType	4	(X/Y/Z)	./resultDataOpenSim/trcMotMarkerGrf/sub06/qtm-01-04.trc
DataRate	CameraRate	NumFrames	NumMarkers	Units	OrigDataRate	OrigDataStartFrame	OrigNumFrames
250.000000	250.000000	13	24	m	250.000000	387	515
Frame#	Time	L.Toe.Tip			R.Toe.Tip			L.Ankle.Lat			R.Ankle.Lat			L.Ankle.Med			R.Ankle.Med			L.Heel			R.Heel			L.Knee.Lat			R.Knee.Lat			L.Knee.Med			R.Knee.Med			L.Thigh.Upper			R.Thigh.Upper			L.ASIS			R.ASIS			V.Sacral			L.Acromium			R.Acromium			C7			L.Elbow			R.Elbow			L.Wrist.Lat			R.Wrist.Lat
		X1	Y1	Z1	X2	Y2	Z2	X3	Y3	Z3	X4	Y4	Z4	X5	Y5	Z5	X6	Y6	Z6	X7	Y7	Z7	X8	Y8	Z8	X9	Y9	Z9	X10	Y10	Z10	X11	Y11	Z11	X12	Y12	Z12	X13	Y13	Z13	X14	Y14	Z14	X15	Y15	Z15	X16	Y16	Z16	X17	Y17	Z17	X18	Y18	Z18	X19	Y19	Z19	X20	Y20	Z20	X21	Y21	Z21	X22	Y22	Z22	X23	Y23	Z23	X24	Y24	Z24

387	1.544	1.4190059	0.099388013	-0.062636351	0.87530528	0.035007791	0.11650435	1.2902819	0.095003423	-0.074522248	0.74951648	0.088439032	0.14466857	1.2980347	0.11280591	0.0085503683	0.77311146	0.10965021	0.059204478	1.2353281	0.044289723	-0.022606064	0.69167194	0.083006464	0.085653223	1.2222133	0.4614552	-0.074442292	0.90796208	0.44721898	0.17993537	1.2189205	0.4504641	0.049235795	0.88027511	0.44934665	0.049927756	1.0570735	0.81792464	-0.10383066	0.99272048	0.80236783	0.23844508	1.1183579	0.86302261	-0.048637797	1.0983577	0.85581804	0.19957464	0.92289362	0.93213838	0.064976888	1.0274537	1.3371098	-0.11593841	1.0590321	1.3347694	0.24425779	0.96859534	1.374254	0.069725337	0.91547223	1.0435073	-0.16382219	1.0460407	1.0168992	0.33691661	0.9984662	0.82052775	-0.21816304	1.2845715	0.94408102	0.30768203
388	1.548	1.4346566	0.10407645	-0.061859595	0.87537096	0.03498262	0.11655112	1.3061903	0.096329462	-0.074341875	0.75005559	0.089194523	0.14482164	1.3129787	0.11382174	0.0090335163	0.7737514	0.11018572	0.059338292	1.2521408	0.043994139	-0.023026444	0.69212284	0.084194511	0.085866067	1.2290018	0.45987862	-0.073316805	0.9119154	0.44675788	0.17978031	1.2256451	0.44882984	0.050571	0.88412262	0.44887198	0.049853982	1.0638824	0.81619762	-0.10409326	0.9985872	0.80118172	0.23810859	1.1250898	0.86159424	-0.048893414	1.1048823	0.85448964	0.19911511	0.92944992	0.93068015	0.064317798	1.0335722	1.3355274	-0.11621847	1.0652286	1.3333996	0.24401925	0.97480526	1.372831	0.069461069	0.92108799	1.0424823	-0.16305462	1.0538715	1.0154973	0.3369283	1.0011801	0.81892812	-0.21931544	1.2930418	0.94488494	0.30651718
389	1.552	1.4497422	0.10877497	-0.061095732	0.87543762	0.0349532	0.11660724	1.3216206	0.097813782	-0.07407274	0.75063124	0.089966734	0.14500016	1.3273505	0.1147381	0.0096998285	0.77434183	0.11075957	0.059556105	1.268394	0.044069356	-0.023984769	0.69260052	0.085430168	0.08612632	1.2359326	0.45837536	-0.072125674	0.91591822	0.44625815	0.1796307	1.2323881	0.44730205	0.051917505	0.88804692	0.44838523	0.049794247	1.0707126	0.81447082	-0.10438266	1.0044477	0.79996447	0.23770714	1.1318959	0.86015715	-0.049180824	1.1111689	0.85309547	0.19880847	0.93599395	0.92919639	0.063530687	1.0397345	1.3339227	-0.1165267	1.0714414	1.3320026	0.24376609	0.98102446	1.3713926	0.069169658	0.9267894	1.0414502	-0.1623166	1.0616646	1.0140607	0.33688862	1.0039687	0.8173178	-0.22045591	1.3014319	0.94558203	0.30538962
390	1.556	1.4642726	0.11330877	-0.060263754	0.87550885	0.034926823	0.11666201	1.3365072	0.099391146	-0.073680586	0.75125031	0.09076284	0.1452135	1.3409061	0.11552143	0.010362901	0.77492102	0.11137774	0.059827493	1.2841059	0.044380216	-0.025117281	0.69311268	0.086718115	0.086429242	1.2430118	0.45698782	-0.070905267	0.91990799	0.44569963	0.17951645	1.2391311	0.44591984	0.053253979	0.89205507	0.4478816	0.049762675	1.0775611	0.81275921	-0.1046885	1.0102659	0.79869861	0.23720775	1.1387834	0.85871781	-0.049495429	1.1170767	0.8515961	0.19876333	0.94249856	0.92769607	0.062680391	1.0459412	1.3322998	-0.11685681	1.0776716	1.3305822	0.24349573	0.98726035	1.3699359	0.068850042	0.93253531	1.0403729	-0.16165997	1.069435	1.0126002	0.336818	1.0068381	0.81570252	-0.22158635	1.3097233	0.94617449	0.30429373
391	1.56	1.4782506	0.11757583	-0.059350334	0.87558548	0.034933158	0.11671339	1.350802	0.10098227	-0.073128612	0.75191971	0.091588215	0.14547066	1.3536036	0.11627168	0.01090981	0.77554921	0.11203943	0.060102762	1.299266	0.044750326	-0.025876917	0.69366458	0.088064254	0.08676981	1.2502303	0.45573787	-0.069701237	0.92379998	0.44506128	0.17947409	1.2458704	0.44471024	0.054549532	0.89615661	0.44735439	0.049763827	1.0844375	0.8110699	-0.1049984	1.0160683	0.79738473	0.23665351	1.1457224	0.85728308	-0.049810221	1.1228277	0.85001505	0.19884008	0.94899906	0.92618724	0.061889406	1.0521951	1.3306591	-0.11720946	1.08392	1.3291425	0.24320745	0.99352946	1.3684681	0.06849947	0.93829457	1.0392208	-0.16112112	1.077193	1.0111269	0.33673392	1.0097987	0.81409155	-0.22270784	1.3179213	0.94666615	0.30320906
392	1.564	1.4916616	0.12152915	-0.058400389	0.87566225	0.035021997	0.11676968	1.3644878	0.10250458	-0.072396775	0.75263774	0.092451013	0.14576677	1.3657459	0.11718531	0.011446922	0.77627176	0.11273418	0.060345989	1.3138157	0.045086143	-0.025977862	0.69426029	0.089475802	0.08714313	1.2575705	0.45463135	-0.068553185	0.92750208	0.44432699	0.17953875	1.2526122	0.44367849	0.055778844	0.90037501	0.44679356	0.049767774	1.0913548	0.80941112	-0.10530679	1.0219052	0.79603709	0.2361161	1.1526714	0.85585987	-0.050092618	1.1287643	0.84841153	0.1988095	0.95553182	0.92467824	0.061210654	1.0585032	1.3289997	-0.11758967	1.090188	1.3276884	0.24290152	0.99984621	1.3670005	0.068115548	0.94407384	1.0379989	-0.16068816	1.0849464	1.0096506	0.33664305	1.0128638	0.81249273	-0.22382016	1.3260464	0.94706111	0.30212506
393	1.568	1.5044621	0.12511978	-0.05745664	0.87573586	0.035213196	0.11683613	1.3775564	0.10388809	-0.071479529	0.75340047	0.093355578	0.14607886	1.3777334	0.11837335	0.012170118	0.77710258	0.1134522	0.060552887	1.3277044	0.045381393	-0.025461334	0.69490542	0.090960115	0.08754323	1.2650174	0.45367321	-0.06748366	0.93106683	0.44351388	0.17969573	1.2593685	0.44280623	0.056933667	0.90474317	0.44619093	0.04973036	1.0983201	0.80779626	-0.10561255	1.0277942	0.79467187	0.23562134	1.1596126	0.85445327	-0.050326418	1.1349895	0.84681948	0.19860895	0.96210452	0.92318128	0.060610032	1.0648721	1.3273243	-0.11800099	1.0964798	1.3262251	0.24257901	1.006214	1.365534	0.067698865	0.94989838	1.036734	-0.16032498	1.0927007	1.0081799	0.33654459	1.0160391	0.81091089	-0.22492109	1.3341155	0.9473658	0.30104726
394	1.572	1.5165951	0.12827439	-0.056516544	0.87581531	0.035447612	0.11690974	1.3899876	0.10508072	-0.070381976	0.75421548	0.094297447	0.14638778	1.3896629	0.11969713	0.013169954	0.77802585	0.11419575	0.060747607	1.340916	0.045636716	-0.024458644	0.69560853	0.092523577	0.087961933	1.2725683	0.45287046	-0.066498862	0.93478068	0.44268713	0.17985263	1.2661581	0.44205706	0.058013667	0.90927949	0.44555061	0.049639869	1.1053382	0.80623723	-0.10591004	1.0337262	0.7932996	0.23515059	1.1665551	0.85306344	-0.050510497	1.1413753	0.84523933	0.19834003	0.96872093	0.92170289	0.06003325	1.071304	1.3256412	-0.11844787	1.1028003	1.3247567	0.24224063	1.0126257	1.3640655	0.067250862	0.95578494	1.0354496	-0.16000702	1.1004498	1.0067172	0.33642854	1.0193169	0.80934861	-0.22600758	1.3421325	0.94758554	0.29998862
395	1.576	1.5280513	0.13090733	-0.055540898	0.87591486	0.035628603	0.11699032	1.4017711	0.10603841	-0.069126002	0.75511292	0.095271471	0.14670789	1.4012283	0.12087278	0.014403452	0.77901219	0.11497867	0.060963543	1.3534482	0.045804776	-0.023009942	0.69637772	0.094171682	0.088393258	1.2802351	0.45221631	-0.065597666	0.93893026	0.44191144	0.17991635	1.2730042	0.44138398	0.059013796	0.9139797	0.44488678	0.049525492	1.1124166	0.80473817	-0.10618755	1.0396897	0.79192408	0.23467669	1.1735183	0.85168416	-0.05064933	1.1477826	0.84366216	0.19810934	0.97540409	0.92023603	0.059437637	1.0777973	1.3239589	-0.11893306	1.109152	1.3232863	0.24188485	1.0190711	1.3626011	0.066770601	0.96173919	1.0341556	-0.15972809	1.1081741	1.0052563	0.3362752	1.0226892	0.80780933	-0.22707902	1.3500939	0.94771657	0.2989664
396	1.58	1.5388866	0.1329512	-0.054494264	0.87603951	0.03570394	0.11707811	1.4129233	0.10671971	-0.067745131	0.75615018	0.096274441	0.14708965	1.4120733	0.12171366	0.015785833	0.7800402	0.11581829	0.061224826	1.3652981	0.04579895	-0.021066472	0.69721742	0.095909895	0.088839819	1.288031	0.45168077	-0.064775238	0.94353514	0.44119457	0.17988332	1.2799291	0.4407389	0.059931971	0.91883324	0.44421311	0.04941893	1.1195623	0.80329794	-0.10643249	1.0456644	0.79054593	0.23418507	1.1805201	0.85030509	-0.050751745	1.154167	0.84208198	0.19794962	0.9821946	0.91876736	0.0587877	1.084348	1.3222822	-0.11944856	1.1155367	1.3218194	0.24150805	1.0255465	1.3611501	0.066256794	0.96776327	1.0328549	-0.15948956	1.1158554	1.0037921	0.33607069	1.0261627	0.80629787	-0.22813712	1.3580014	0.94774866	0.29800309
397	1.584	1.549159	0.13438065	-0.05335759	0.87618797	0.035669856	0.11715328	1.4234687	0.10709312	-0.066265124	0.75738182	0.09730237	0.14758544	1.4222219	0.1221963	0.017268239	0.78110827	0.11672498	0.061538644	1.3764548	0.045556198	-0.018659702	0.6981299	0.097743588	0.089311658	1.2959548	0.45121982	-0.064016932	0.94842564	0.44050055	0.17981255	1.2869527	0.44008627	0.060780421	0.92382611	0.44353841	0.049333531	1.1267798	0.80191538	-0.10664022	1.0516015	0.78916717	0.23368096	1.1875729	0.84891926	-0.050828634	1.1605545	0.84049902	0.19783923	0.98910823	0.91729277	0.058076298	1.0909508	1.3206149	-0.11998176	1.1219615	1.3203671	0.24110508	1.0320617	1.3597107	0.065711744	0.97385748	1.0315542	-0.15929069	1.123497	1.0023331	0.33582751	1.0297542	0.80481532	-0.22918213	1.3658587	0.94767775	0.29710605
398	1.588	1.5588879	0.13520875	-0.052106873	0.87636352	0.035530652	0.11717577	1.433423	0.10714205	-0.064696643	0.75877522	0.098369647	0.14818471	1.4320616	0.12236549	0.018842004	0.78223086	0.1176985	0.061898512	1.3868844	0.045103721	-0.016075385	0.69911716	0.099676105	0.089818391	1.3039845	0.4507869	-0.063294118	0.95345231	0.43979549	0.1797501	1.2940908	0.43941184	0.061579895	0.92892905	0.44286322	0.049281385	1.1340701	0.80059076	-0.10682088	1.0574266	0.78779245	0.23317753	1.19468	0.84752928	-0.05088894	1.166995	0.83891525	0.19774231	0.99608722	0.91582702	0.057360884	1.0976048	1.3189635	-0.12053006	1.1284397	1.3189423	0.24066813	1.0386298	1.3582751	0.065141453	0.98001714	1.0302637	-0.15912824	1.1311421	1.0009094	0.3355998	1.033475	0.80335853	-0.23021236	1.3736509	0.94751194	0.29624177
399	1.592	1.5680671	0.13546907	-0.05070455	0.87656819	0.035310051	0.11712609	1.4427894	0.10686185	-0.06305427	0.76014994	0.099531403	0.14877076	1.4418369	0.12226923	0.020489112	0.78342468	0.11873461	0.062296183	1.3965354	0.044529677	-0.013720387	0.70018401	0.10170823	0.090363331	1.3120959	0.45034089	-0.062570006	0.95855281	0.43906535	0.17971257	1.3013162	0.43871658	0.062347316	0.93411748	0.44217694	0.049272608	1.1414255	0.799326	-0.10699156	1.0631214	0.78642466	0.23265536	1.2018363	0.84614194	-0.050938661	1.1735328	0.83732827	0.19763268	1.0030405	0.9143908	0.056728557	1.1043123	1.3173332	-0.12110081	1.1349798	1.3175512	0.24019006	1.0452486	1.3568464	0.064547792	0.9862352	1.0289914	-0.15900098	1.1388724	0.99956789	0.33548188	1.0373251	0.80192831	-0.23122613	1.3813485	0.94726194	0.2953617
